<svg xmlns="http://www.w3.org/2000/svg" role="img" viewBox="0 0 32 32">
  <title>Microsoft PowerPoint</title>
  <path fill="#ed6c47" d="M13 6.5h13.5A1.5 1.5 0 0 1 28 8v16a1.5 1.5 0 0 1-1.5 1.5H13z"/>
  <path fill="#ff8f6b" d="M20.5 9.5a7 7 0 1 1-6.92 8h7.92v-8z"/>
  <path fill="#c43e1c" d="M22.5 9.75v6.75H29a6.76 6.76 0 0 0-6.5-6.75z"/>
  <path fill="#a92b12" d="M13 20h15v4a1.5 1.5 0 0 1-1.5 1.5H13z" opacity=".55"/>
  <path fill="#c43e1c" d="M4 5.25 14 3.5v25L4 26.75A1.5 1.5 0 0 1 2.75 25.27V6.73A1.5 1.5 0 0 1 4 5.25z"/>
  <path fill="#fff" d="M6 20.8v-9.6h3.19c1.05 0 1.87.27 2.46.82.59.54.88 1.27.88 2.18 0 .94-.3 1.68-.9 2.22-.6.53-1.45.8-2.55.8H7.46v3.58zm1.46-4.85h1.49c.68 0 1.19-.15 1.54-.45.35-.31.52-.73.52-1.27 0-.55-.17-.98-.51-1.29-.34-.31-.84-.47-1.5-.47H7.46z"/>
</svg>
